<svg width="237" height="40" viewBox="0 0 237 40" fill="none" xmlns="http://www.w3.org/2000/svg">
<path d="M35.3291 37V31.132H40.0451V37H35.3291ZM45.5264 37V11.44H56.4344C57.6584 11.44 58.7744 11.692 59.7824 12.196C60.8144 12.676 61.7024 13.336 62.4464 14.176C63.1904 14.992 63.7664 15.916 64.1744 16.948C64.5824 17.98 64.7864 19.036 64.7864 20.116C64.7864 21.58 64.4384 22.972 63.7424 24.292C63.0704 25.612 62.1224 26.692 60.8984 27.532C59.6984 28.348 58.2704 28.756 56.6144 28.756H51.4304V37H45.5264ZM51.4304 23.608H56.2544C56.7104 23.608 57.1304 23.476 57.5144 23.212C57.8984 22.948 58.2104 22.552 58.4504 22.024C58.6904 21.496 58.8104 20.848 58.8104 20.08C58.8104 19.288 58.6664 18.64 58.3784 18.136C58.1144 17.608 57.7664 17.224 57.3344 16.984C56.9264 16.744 56.4944 16.624 56.0384 16.624H51.4304V23.608ZM73.6168 11.44H79.9888L88.7728 37H82.7248L80.7448 31.276H72.7888L70.8448 37H64.7968L73.6168 11.44ZM79.7728 27.208L76.7848 17.38L73.7248 27.208H79.7728ZM92.37 37V11.44H103.89C105.09 11.44 106.194 11.692 107.202 12.196C108.234 12.676 109.122 13.336 109.866 14.176C110.61 14.992 111.186 15.916 111.594 16.948C112.026 17.98 112.242 19.024 112.242 20.08C112.242 21.136 112.074 22.144 111.738 23.104C111.402 24.04 110.922 24.892 110.298 25.66C109.674 26.404 108.93 27.016 108.066 27.496L113.682 37H107.166L102.27 28.756H98.274V37H92.37ZM98.274 23.608H103.674C104.154 23.608 104.574 23.464 104.934 23.176C105.318 22.864 105.63 22.444 105.87 21.916C106.11 21.388 106.23 20.776 106.23 20.08C106.23 19.384 106.086 18.784 105.798 18.28C105.534 17.752 105.198 17.344 104.79 17.056C104.382 16.768 103.95 16.624 103.494 16.624H98.274V23.608ZM136.727 16.624H128.951V37H123.047V16.624H115.235V11.44H136.727V16.624ZM146.594 22.384V37H140.69V11.44H145.37L157.214 26.488V11.44H163.118V37H158.294L146.594 22.384ZM187.051 31.816V37H169.087V11.44H186.727V16.624H174.991V21.592H185.071V26.38H174.991V31.816H187.051ZM191.717 37V11.44H203.237C204.437 11.44 205.541 11.692 206.549 12.196C207.581 12.676 208.469 13.336 209.213 14.176C209.957 14.992 210.533 15.916 210.941 16.948C211.373 17.98 211.589 19.024 211.589 20.08C211.589 21.136 211.421 22.144 211.085 23.104C210.749 24.04 210.269 24.892 209.645 25.66C209.021 26.404 208.277 27.016 207.413 27.496L213.029 37H206.513L201.617 28.756H197.621V37H191.717ZM197.621 23.608H203.021C203.501 23.608 203.921 23.464 204.281 23.176C204.665 22.864 204.977 22.444 205.217 21.916C205.457 21.388 205.577 20.776 205.577 20.08C205.577 19.384 205.433 18.784 205.145 18.28C204.881 17.752 204.545 17.344 204.137 17.056C203.729 16.768 203.297 16.624 202.841 16.624H197.621V23.608ZM232.25 18.928C232.178 18.808 231.926 18.628 231.494 18.388C231.062 18.124 230.522 17.848 229.874 17.56C229.226 17.272 228.518 17.02 227.75 16.804C226.982 16.588 226.214 16.48 225.446 16.48C224.438 16.48 223.658 16.66 223.106 17.02C222.554 17.356 222.278 17.884 222.278 18.604C222.278 19.18 222.482 19.636 222.89 19.972C223.322 20.308 223.934 20.608 224.726 20.872C225.518 21.112 226.49 21.4 227.642 21.736C229.274 22.168 230.69 22.696 231.89 23.32C233.09 23.92 234.002 24.7 234.626 25.66C235.274 26.62 235.598 27.892 235.598 29.476C235.598 30.916 235.334 32.14 234.806 33.148C234.278 34.132 233.558 34.936 232.646 35.56C231.758 36.16 230.738 36.604 229.586 36.892C228.434 37.156 227.246 37.288 226.022 37.288C224.774 37.288 223.49 37.168 222.17 36.928C220.874 36.664 219.626 36.304 218.426 35.848C217.226 35.368 216.122 34.792 215.114 34.12L217.706 28.972C217.802 29.092 218.114 29.32 218.642 29.656C219.17 29.968 219.818 30.304 220.586 30.664C221.378 31 222.254 31.3 223.214 31.564C224.174 31.828 225.146 31.96 226.13 31.96C227.186 31.96 227.966 31.792 228.47 31.456C228.998 31.12 229.262 30.652 229.262 30.052C229.262 29.404 228.986 28.9 228.434 28.54C227.906 28.18 227.174 27.856 226.238 27.568C225.326 27.28 224.27 26.956 223.07 26.596C221.51 26.116 220.214 25.576 219.182 24.976C218.174 24.376 217.418 23.644 216.914 22.78C216.434 21.916 216.194 20.836 216.194 19.54C216.194 17.74 216.614 16.228 217.454 15.004C218.318 13.756 219.47 12.82 220.91 12.196C222.35 11.548 223.922 11.224 225.626 11.224C226.826 11.224 227.978 11.368 229.082 11.656C230.21 11.944 231.254 12.304 232.214 12.736C233.198 13.168 234.074 13.6 234.842 14.032L232.25 18.928Z" fill="#1B1B1B"/>
<path d="M20.6738 20.9319L31.086 5V37H24.6882V20.9319H20.6738Z" fill="#74E700"/>
<path d="M27.3226 5H19.2939L7 24.0681V30.5914H21.3011V24.0681H15.0287L27.3226 5Z" fill="#74E700"/>
<path d="M20.6738 20.9319L31.086 5V37H24.6882V20.9319H20.6738Z" stroke="#74E700" stroke-width="0.250896"/>
<path d="M27.3226 5H19.2939L7 24.0681V30.5914H21.3011V24.0681H15.0287L27.3226 5Z" stroke="#74E700" stroke-width="0.250896"/>
</svg>
